<?xml version="1.0" standalone="no"?>
<!DOCTYPE svg PUBLIC "-//W3C//DTD SVG 20010904//EN"
 "http://www.w3.org/TR/2001/REC-SVG-20010904/DTD/svg10.dtd">
<svg version="1.0" xmlns="http://www.w3.org/2000/svg"
 width="512.000000pt" height="512.000000pt" viewBox="0 0 512.000000 512.000000"
 preserveAspectRatio="xMidYMid meet">
<metadata>
Created by potrace 1.14, written by Peter Selinger 2001-2017
</metadata>
<g transform="translate(0.000000,512.000000) scale(0.100000,-0.100000)"
fill="#000000" stroke="none">
<path d="M1573 5093 c-27 -16 -186 -110 -353 -210 -168 -100 -500 -298 -739
-440 -264 -157 -442 -269 -455 -286 l-21 -28 -3 -2001 -2 -2001 21 -43 c15
-31 32 -48 63 -63 42 -21 54 -21 969 -21 l927 0 91 137 c157 234 194 340 193
558 0 163 -13 222 -80 360 -54 110 -139 215 -230 283 -38 29 -159 97 -269 153
-110 56 -201 103 -203 105 -2 1 2 38 8 81 6 43 14 93 16 110 l5 33 525 0 525
0 97 -61 c337 -213 561 -475 662 -777 44 -132 60 -236 60 -393 0 -160 -18
-278 -67 -439 -20 -63 -38 -123 -40 -133 -5 -16 37 -17 873 -15 l879 3 31 22
c69 50 64 -124 64 2085 0 1880 -1 1995 -18 2025 -9 18 -231 244 -493 502 -514
506 -497 493 -586 476 -33 -6 -79 -48 -343 -309 l-305 -303 -386 -130 -386
-131 -424 425 c-233 233 -436 431 -451 439 -42 22 -99 17 -155 -13z"/>
</g>
</svg>
