<svg viewBox="0 1 511 511.99994" xmlns="http://www.w3.org/2000/svg"><path d="m165.753906 397.15625h180.652344v114.84375h-180.652344zm0 0" fill="#ebe1dc"/><path d="m255.109375 397.15625h91.296875v114.84375h-91.296875zm0 0" fill="#dcd2cd"/><path d="m511.582031 86.644531v253.863281c0 47.78125-38.867187 86.644532-86.636719 86.644532h-337.800781c-47.78125 0-86.644531-38.863282-86.644531-86.644532v-253.863281c0-47.78125 38.863281-86.644531 86.644531-86.644531h337.800781c47.769532 0 86.636719 38.863281 86.636719 86.644531zm0 0" fill="#f5f0eb"/><path d="m511.582031 86.644531v253.863281c0 47.78125-38.867187 86.644532-86.636719 86.644532h-169.835937v-427.152344h169.835937c47.769532 0 86.636719 38.863281 86.636719 86.644531zm0 0" fill="#ebe1dc"/><path d="m405.996094 497.003906c0 8.289063-6.707032 14.996094-14.996094 14.996094h-269.96875c-8.277344 0-14.996094-6.707031-14.996094-14.996094 0-8.28125 6.71875-15 14.996094-15h269.96875c8.289062 0 14.996094 6.71875 14.996094 15zm0 0" fill="#f5f0eb"/><path d="m405.996094 497.003906c0 8.289063-6.707032 14.996094-14.996094 14.996094h-135.890625v-29.996094h135.890625c8.289062 0 14.996094 6.71875 14.996094 15zm0 0" fill="#ebe1dc"/><g fill="#ffb64c"><path d="m256.058594 134.949219c-.320313 0-.628906 0-.949219.007812-42.953125.511719-77.746094 35.617188-77.746094 78.691407 0 43.070312 34.792969 78.175781 77.746094 78.6875.320313.007812.628906.007812.949219.007812 43.394531 0 78.699218-35.304688 78.699218-78.695312 0-43.394532-35.304687-78.699219-78.699218-78.699219zm0 127.398437c-.320313 0-.628906 0-.949219-.019531v-97.363281c.320313-.019532.628906-.019532.949219-.019532 26.855468 0 48.703125 21.84375 48.703125 48.703126 0 26.855468-21.847657 48.699218-48.703125 48.699218zm0 0"/><path d="m270.109375 68.527344v31.328125c0 8.289062-6.71875 14.996093-15 14.996093-8.277344 0-14.996094-6.707031-14.996094-14.996093v-31.328125c0-8.277344 6.71875-14.996094 14.996094-14.996094 8.28125 0 15 6.71875 15 14.996094zm0 0"/><path d="m270.109375 327.4375v31.328125c0 8.277344-6.71875 14.996094-15 14.996094-8.277344 0-14.996094-6.71875-14.996094-14.996094v-31.328125c0-8.277344 6.71875-14.996094 14.996094-14.996094 8.28125 0 15 6.71875 15 14.996094zm0 0"/><path d="m142.269531 228.644531h-31.324219c-8.285156 0-15-6.714843-15-14.996093 0-8.285157 6.714844-15 15-15h31.324219c8.28125 0 14.996094 6.714843 14.996094 15 0 8.28125-6.714844 14.996093-14.996094 14.996093zm0 0"/></g><path d="m401.175781 228.644531h-31.324219c-8.28125 0-14.996093-6.714843-14.996093-14.996093 0-8.285157 6.714843-15 14.996093-15h31.324219c8.285157 0 15 6.714843 15 15 0 8.28125-6.714843 14.996093-15 14.996093zm0 0" fill="#ff9100"/><path d="m177.5 150.082031c-3.839844 0-7.675781-1.460937-10.605469-4.390625l-22.773437-22.773437c-5.855469-5.855469-5.855469-15.351563 0-21.210938 5.859375-5.855469 15.355468-5.855469 21.210937 0l22.773438 22.773438c5.855469 5.855469 5.855469 15.351562 0 21.210937-2.929688 2.929688-6.769531 4.390625-10.605469 4.390625zm0 0" fill="#ffb64c"/><path d="m357.394531 329.976562c-3.839843 0-7.675781-1.460937-10.605469-4.390624l-22.773437-22.773438c-5.855469-5.855469-5.855469-15.351562 0-21.207031 5.859375-5.859375 15.355469-5.859375 21.210937 0l22.773438 22.769531c5.855469 5.859375 5.855469 15.355469 0 21.210938-2.929688 2.925781-6.765625 4.390624-10.605469 4.390624zm0 0" fill="#ff9100"/><path d="m154.726562 329.976562c-3.839843 0-7.675781-1.460937-10.605468-4.390624-5.855469-5.859376-5.855469-15.351563 0-21.210938l22.773437-22.773438c5.855469-5.855468 15.351563-5.855468 21.210938 0 5.855469 5.859376 5.855469 15.355469 0 21.210938l-22.773438 22.773438c-2.929687 2.925781-6.765625 4.390624-10.605469 4.390624zm0 0" fill="#ffb64c"/><path d="m334.621094 150.082031c-3.835938 0-7.675782-1.460937-10.605469-4.390625-5.855469-5.859375-5.855469-15.355468 0-21.210937l22.773437-22.773438c5.855469-5.855469 15.351563-5.855469 21.210938 0 5.855469 5.859375 5.855469 15.355469 0 21.210938l-22.773438 22.773437c-2.929687 2.925782-6.765624 4.390625-10.605468 4.390625zm0 0" fill="#ff9100"/><path d="m255.109375 114.851562v-61.320312c8.28125 0 15 6.71875 15 14.996094v31.328125c0 8.289062-6.71875 14.996093-15 14.996093zm0 0" fill="#ff9100"/><path d="m270.109375 327.4375v31.328125c0 8.277344-6.71875 14.996094-15 14.996094v-61.320313c8.28125 0 15 6.71875 15 14.996094zm0 0" fill="#ff9100"/><path d="m334.757812 213.648438c0 43.390624-35.304687 78.695312-78.699218 78.695312-.320313 0-.628906 0-.949219-.007812v-30.007813c.320313.019531.628906.019531.949219.019531 26.855468 0 48.703125-21.84375 48.703125-48.699218 0-26.859376-21.847657-48.703126-48.703125-48.703126-.320313 0-.628906 0-.949219.019532v-30.007813c.320313-.007812.628906-.007812.949219-.007812 43.394531 0 78.699218 35.304687 78.699218 78.699219zm0 0" fill="#ff9100"/></svg>