<?xml version="1.0" encoding="utf-8"?>
<!-- Svg Vector Icons : http://www.onlinewebfonts.com/icon -->
<!DOCTYPE svg PUBLIC "-//W3C//DTD SVG 1.1//EN" "http://www.w3.org/Graphics/SVG/1.1/DTD/svg11.dtd">
<svg version="1.1" xmlns="http://www.w3.org/2000/svg" xmlns:xlink="http://www.w3.org/1999/xlink" x="0px" y="0px" viewBox="0 0 1000 1000" enable-background="new 0 0 1000 1000" xml:space="preserve">
<metadata> Svg Vector Icons : http://www.onlinewebfonts.com/icon </metadata>
<g><path d="M885.8,459.2c-19-181.6-163.3-326-345-345V50.8c0-22.7-18.3-40.8-40.8-40.8c-22.7,0-40.8,18.3-40.8,40.8v63.4l0,0c-181.6,19-326,163.3-345,345l0,0H50.8C28.1,459.2,10,477.4,10,500c0,22.7,18.3,40.8,40.8,40.8h63.4c19,181.6,163.3,326,345,345l0,0v63.4c0,22.7,18.3,40.8,40.8,40.8c22.7,0,40.8-18.3,40.8-40.8v-63.4c181.6-19,326-163.3,345-345h63.4c22.7,0,40.8-18.3,40.8-40.8c0-22.7-18.3-40.8-40.8-40.8H885.8L885.8,459.2L885.8,459.2z M500,806.3c-169.1,0-306.3-137.1-306.3-306.3c0-169.1,137.1-306.3,306.3-306.3S806.3,330.9,806.3,500C806.3,669.1,669.1,806.3,500,806.3L500,806.3L500,806.3z M510.2,694c96.9,0,183.7-86.8,183.7-183.7C694,392.9,607.1,306,510.2,306C392.9,306,306,392.9,306,510.2C306,607.1,392.9,694,510.2,694L510.2,694z"/></g>
</svg>