<?xml version="1.0" encoding="utf-8"?>
<!-- Svg Vector Icons : http://www.onlinewebfonts.com/icon -->
<!DOCTYPE svg PUBLIC "-//W3C//DTD SVG 1.1//EN" "http://www.w3.org/Graphics/SVG/1.1/DTD/svg11.dtd">
<svg version="1.1" xmlns="http://www.w3.org/2000/svg" xmlns:xlink="http://www.w3.org/1999/xlink" x="0px" y="0px" viewBox="0 0 1000 1000" enable-background="new 0 0 1000 1000" xml:space="preserve">
<metadata> Svg Vector Icons : http://www.onlinewebfonts.com/icon </metadata>
<g><path d="M954.2,305.8l-43.3,43.3L651,89.2l43.3-43.3c47.8-47.8,125.4-47.8,173.3,0l86.6,86.6C1001.9,180.4,1001.9,257.9,954.2,305.8z M347.8,825.4c-12,12-12,31.3,0,43.3c12,12,31.3,12,43.3,0l476.5-476.3l-43.4-43.3L347.8,825.4z M131.2,608.9c-12,12-12,31.3,0,43.3c12,12,31.3,12,43.3,0L651,175.9l-43.3-43.3L131.2,608.9z M694.2,219.1L217.8,695.5c-23.9,23.9-23.9,62.7,0,86.6c23.9,23.9,62.7,24,86.7-0.1l476.4-476.3L694.2,219.1z M304.3,911.9c-14.7-14.7-21.7-33.3-24.3-52.4c-6.2,1-12.5,1.9-18.9,1.9c-32.7,0-63.5-12.8-86.6-35.9c-23.1-23.2-35.9-53.9-35.9-86.6c0-6,0.9-11.8,1.7-17.6c-19.8-2.7-38.1-11.4-52.5-25.7c-1.4-1.4-1.9-3.2-3.1-4.7L10,990l298.4-74.7C307.1,914.1,305.6,913.2,304.3,911.9z"/></g>
</svg>