<svg id="Capa_1" enable-background="new 0 0 511.017 511.017" height="512" viewBox="0 0 511.017 511.017" width="512" xmlns="http://www.w3.org/2000/svg"><g><path d="m485.407 4.406-101.89 101.89s4.17 7.87-5.54 16.81c-9.71 8.95-15.68 4.41-15.68 4.41l-42.78 42.78s2.97 8.19-7.21 16.19-14.01 5.03-14.01 5.03l-42.78 42.78s1.42 8.64-5.36 15.86c-.16.16-.31.32-.47.48-7.31 7.31-15.39 4.88-15.39 4.88l-42.78 42.78s3.55 8.34-5.61 15.47c-9.16 7.12-15.61 5.75-15.61 5.75l-42.78 42.78s5.15 11.1-4.15 17.5c-9.31 6.4-17.07 3.72-17.07 3.72l-101.89 101.89c-9.415 9.415-2.751 25.61 10.61 25.61h481c8.266 0 15-6.719 15-15v-481c0-13.366-16.201-20.02-25.61-10.61zm-86.39 409.61h-136c-13.365 0-20.021-16.199-10.61-25.61l136-136c9.415-9.415 25.61-2.751 25.61 10.61v136c0 8.266-6.72 15-15 15z" fill="#a2e786"/><path d="m506.617 506.616c-2.71 2.72-6.46 4.4-10.6 4.4h-481c-13.365 0-20.021-16.199-10.61-25.61l101.89-101.89s7.76 2.68 17.07-3.72c9.3-6.4 4.15-17.5 4.15-17.5l42.78-42.78s6.45 1.37 15.61-5.75c9.16-7.13 5.61-15.47 5.61-15.47l42.78-42.78s8.08 2.43 15.39-4.88c.16-.16.31-.32.47-.48l70.25 70.25-68 68c-9.415 9.415-2.751 25.61 10.61 25.61h136c4.14 0 7.89-1.68 10.6-4.4z" fill="#00da80"/><path d="m361.626 233.626c-5.811 5.812-15.325 5.895-21.22 0l-42.11-42.11 21.22-21.22 42.11 42.11c5.851 5.86 5.851 15.36 0 21.22z" fill="#00da80"/><path d="m169.626 425.626c-5.811 5.812-15.325 5.895-21.22 0l-42.11-42.11 21.22-21.22 42.11 42.11c5.851 5.86 5.851 15.36 0 21.22z" fill="#009859"/><path d="m425.626 169.626c-5.811 5.812-15.325 5.895-21.22 0l-42.11-42.11 21.22-21.22 42.11 42.11c5.851 5.86 5.851 15.36 0 21.22z" fill="#00da80"/><path d="m233.626 361.626c-5.811 5.812-15.325 5.895-21.22 0l-42.11-42.11 21.22-21.22 42.11 42.11c5.851 5.86 5.851 15.36 0 21.22z" fill="#009859"/><path d="m297.626 297.626c-5.811 5.812-15.325 5.895-21.22 0l-42.11-42.11 21.22-21.22 42.11 42.11c5.851 5.86 5.851 15.36 0 21.22z" fill="#00da80"/><path d="m297.626 297.626c-5.811 5.812-15.325 5.895-21.22 0l-42.11-42.11 10.61-10.61z" fill="#009859"/></g></svg>