<?xml version="1.0" encoding="utf-8"?>
<!-- Svg Vector Icons : http://www.onlinewebfonts.com/icon -->
<!DOCTYPE svg PUBLIC "-//W3C//DTD SVG 1.1//EN" "http://www.w3.org/Graphics/SVG/1.1/DTD/svg11.dtd">
<svg version="1.1" xmlns="http://www.w3.org/2000/svg" xmlns:xlink="http://www.w3.org/1999/xlink" x="0px" y="0px" viewBox="0 0 1000 1000" enable-background="new 0 0 1000 1000" xml:space="preserve">
<metadata> Svg Vector Icons : http://www.onlinewebfonts.com/icon </metadata>
<g><path d="M943.4,179.1c-3.8-3.8-8.7-5.7-14.7-5.7H731.6L686.9,66.8c-6.4-15.7-17.9-29.1-34.4-40.2C635.9,15.5,619.1,10,602.1,10H397.9c-17,0-33.8,5.5-50.4,16.6c-16.6,11.1-28.1,24.5-34.5,40.2l-44.7,106.5H71.2c-6,0-10.8,1.9-14.7,5.7c-3.8,3.8-5.7,8.7-5.7,14.7v40.8c0,6,1.9,10.8,5.7,14.7c3.8,3.8,8.7,5.7,14.7,5.7h61.2v607.4c0,35.3,10,65.4,30,90.3c20,24.9,44,37.3,72.1,37.3h530.8c28.1,0,52.1-12.9,72.1-38.6c20-25.7,30-56.3,30-91.6V255h61.3c6,0,10.8-1.9,14.7-5.7c3.8-3.8,5.7-8.7,5.7-14.7v-40.8C949.2,187.8,947.2,182.9,943.4,179.1z M388.3,98.7c3-3.8,6.6-6.2,10.8-7h202.3c4.3,0.9,7.9,3.2,10.8,7l30.6,74.6H357.1L388.3,98.7z M785.8,859.8c0,9.4-1.5,18-4.5,25.8c-3,7.9-6.1,13.6-9.3,17.2c-3.2,3.6-5.4,5.4-6.7,5.4H234.6c-1.3,0-3.5-1.8-6.7-5.4c-3.2-3.6-6.3-9.4-9.3-17.2c-3-7.9-4.5-16.5-4.5-25.8V255h571.7V859.8z"/><path d="M316.2,785.8h40.8c6,0,10.9-1.9,14.7-5.7c3.8-3.8,5.7-8.7,5.7-14.7V397.9c0-6-1.9-10.8-5.7-14.7c-3.8-3.8-8.7-5.7-14.7-5.7h-40.8c-6,0-10.8,1.9-14.7,5.7c-3.8,3.8-5.7,8.7-5.7,14.7v367.5c0,6,1.9,10.8,5.7,14.7C305.4,783.9,310.3,785.8,316.2,785.8z"/><path d="M479.6,785.8h40.8c6,0,10.9-1.9,14.7-5.7c3.8-3.8,5.7-8.7,5.7-14.7V397.9c0-6-1.9-10.8-5.7-14.7c-3.8-3.8-8.7-5.7-14.7-5.7h-40.8c-6,0-10.8,1.9-14.7,5.7c-3.8,3.8-5.7,8.7-5.7,14.7v367.5c0,6,1.9,10.8,5.7,14.7C468.7,783.9,473.6,785.8,479.6,785.8z"/><path d="M642.9,785.8h40.8c6,0,10.9-1.9,14.7-5.7c3.8-3.8,5.7-8.7,5.7-14.7V397.9c0-6-1.9-10.8-5.7-14.7c-3.8-3.8-8.7-5.7-14.7-5.7h-40.8c-6,0-10.8,1.9-14.7,5.7c-3.8,3.8-5.7,8.7-5.7,14.7v367.5c0,6,1.9,10.8,5.7,14.7C632.1,783.9,637,785.8,642.9,785.8z"/></g>
</svg>