<?xml version="1.0" encoding="iso-8859-1"?>
<!-- Generator: Adobe Illustrator 19.0.0, SVG Export Plug-In . SVG Version: 6.00 Build 0)  -->
<svg version="1.1" id="Capa_1" xmlns="http://www.w3.org/2000/svg" xmlns:xlink="http://www.w3.org/1999/xlink" x="0px" y="0px"
	 viewBox="0 0 503.151 503.151" style="enable-background:new 0 0 503.151 503.151;" xml:space="preserve">
<path style="fill:#4CAF50;" d="M471.172,0H309.337c-8.483,0.022-16.616,3.387-22.635,9.365L9.369,286.699
	c-12.492,12.496-12.492,32.752,0,45.248l161.835,161.835c12.496,12.492,32.752,12.492,45.248,0l277.333-277.333
	c6.018-5.992,9.39-14.142,9.365-22.635V32C503.151,14.335,488.837,0.012,471.172,0z M385.839,170.667
	c-29.455,0-53.333-23.878-53.333-53.333S356.383,64,385.839,64s53.333,23.878,53.333,53.333S415.294,170.667,385.839,170.667z"/>
<g>
</g>
<g>
</g>
<g>
</g>
<g>
</g>
<g>
</g>
<g>
</g>
<g>
</g>
<g>
</g>
<g>
</g>
<g>
</g>
<g>
</g>
<g>
</g>
<g>
</g>
<g>
</g>
<g>
</g>
</svg>
